<svg width="46" height="46" viewBox="0 0 46 46" fill="none" xmlns="http://www.w3.org/2000/svg">
<path d="M24.0138 3.11175C23.9476 3.05117 23.8518 2.96662 23.7433 2.8694C23.2107 2.39737 22.4089 2.39737 21.8763 2.8694C21.7678 2.96521 21.672 3.05117 21.6058 3.11034C17.993 6.38775 7.30975 16.9653 7.30975 27.419C7.30975 33.1227 14.3704 36.889 18.5792 38.625C19.2245 38.8913 21.0999 39.9354 22.1046 40.5046V43.6228C22.1046 44.0117 22.4202 44.3273 22.8091 44.3273C23.198 44.3273 23.5136 44.0117 23.5136 43.6228V40.5046C24.5183 39.9354 26.3923 38.8913 27.039 38.6264C31.2478 36.8891 38.3084 33.1241 38.3084 27.419C38.3084 16.9668 27.6266 6.38916 24.0138 3.11175ZM36.0934 24.498L23.5136 32.0448V38.1825C23.5136 38.5714 23.198 38.8871 22.8091 38.8871C22.4202 38.8871 22.1046 38.5714 22.1046 38.1825V32.0448L9.52475 24.4966C9.25985 24.3374 9.12881 24.0246 9.20349 23.7245C9.31621 23.2637 9.84319 23.0453 10.2504 23.2891L22.1046 30.4019V22.1816L12.9346 16.6807C12.595 16.4778 12.4908 16.034 12.7021 15.7C12.9064 15.3774 13.332 15.2759 13.6603 15.4732L22.1046 20.5401V13.7274L17.2772 10.8304C16.9038 10.6064 16.8207 10.1005 17.1039 9.76802C17.328 9.50594 17.707 9.44535 18.0015 9.62148L22.1046 12.0845V5.26898C22.1046 4.88009 22.4202 4.56446 22.8091 4.56446C23.198 4.56446 23.5136 4.88009 23.5136 5.26898V12.0845L27.6167 9.62289C27.9112 9.44535 28.2916 9.50735 28.5143 9.76943C28.7975 10.1005 28.7144 10.6064 28.341 10.8318L23.5136 13.7274V20.5387L31.9579 15.4718C32.2862 15.2745 32.7118 15.376 32.9161 15.6986C33.1274 16.0326 33.0218 16.4764 32.6836 16.6793L23.5136 22.1816V30.4019L35.3678 23.2891C35.775 23.0453 36.3006 23.2637 36.4147 23.7245C36.4894 24.0246 36.3583 24.3388 36.0934 24.498Z" fill="#0B1719"/>
</svg>
