<svg width="40" height="37" viewBox="0 0 40 37" fill="none" xmlns="http://www.w3.org/2000/svg">
<path d="M19.3253 24.3941L15.2939 28.1213L11.2624 24.3941L15.2939 20.6669L19.3253 24.3941ZM19.3253 15.3393L15.2939 11.6122L11.2624 15.3393L15.2939 19.0665L19.3253 15.3393ZM16.1594 28.9215L20.1908 32.6486L24.2222 28.9215L20.1908 25.1943L16.1594 28.9215ZM20.1908 23.5939L24.2222 19.8667L20.1908 16.1395L16.1594 19.8667L20.1908 23.5939ZM24.2222 10.812L20.1908 7.08479L16.1594 10.812L20.1908 14.5391L24.2222 10.812ZM36.1059 4.58681C36.1059 5.8375 35.0102 6.8505 33.6575 6.8505H33.5595L31.4795 30.8898C31.3265 32.6543 29.7325 34.0148 27.8178 34.0148H12.5638C10.6491 34.0148 9.05513 32.6543 8.90332 30.8898L6.82212 6.8505H6.72418C5.37139 6.8505 4.2757 5.8375 4.2757 4.58681C4.2757 3.33612 5.37139 2.32312 6.72418 2.32312H33.6575C35.0102 2.32312 36.1059 3.33612 36.1059 4.58681ZM30.8503 15.3393L31.5028 14.7361C31.6056 14.641 31.6681 14.5154 31.6803 14.3807C31.7256 13.8566 31.04 13.5635 30.6373 13.9358L29.9847 14.5391L25.9533 10.812L29.1939 7.81596C29.5795 7.46056 29.3053 6.8505 28.7605 6.8505C28.5977 6.8505 28.4422 6.91049 28.3271 7.01575L25.0878 10.0117L21.8472 7.01575C21.7334 6.91049 21.5779 6.8505 21.4151 6.8505H18.9666C18.8038 6.8505 18.6483 6.91049 18.5332 7.01575L15.2939 10.0117L12.0533 7.01575C11.9394 6.91049 11.784 6.8505 11.6211 6.8505C11.0764 6.8505 10.8021 7.46056 11.1878 7.81596L14.4283 10.812L10.3969 14.5391L9.7456 13.937C9.34283 13.5646 8.65725 13.8578 8.70255 14.3818C8.71479 14.5154 8.77723 14.6421 8.88006 14.7372L9.53136 15.3393L9.04044 15.7932C8.91312 15.9109 8.84823 16.0728 8.86292 16.238C8.90455 16.7191 9.53626 16.9341 9.90598 16.5934L10.3969 16.1395L14.4283 19.8667L10.3969 23.5939L10.3026 23.5067C10.0002 23.2283 9.48606 23.4479 9.52034 23.8406L9.61461 24.9283C9.64644 25.2894 10.1202 25.4501 10.3969 25.1943L14.4283 28.9215L11.424 31.699C11.1376 31.9639 11.2037 32.4076 11.5563 32.592C11.795 32.7165 12.0949 32.6792 12.2896 32.4992L15.2939 29.7217L18.5344 32.7165C18.6483 32.8229 18.8038 32.8829 18.9666 32.8829H21.4151C21.5779 32.8829 21.7334 32.8229 21.8484 32.7177L25.0878 29.7217L28.0921 32.4992C28.2867 32.6792 28.5867 32.7165 28.8254 32.592C29.178 32.4076 29.2441 31.9639 28.9576 31.699L25.9533 28.9215L29.9847 25.1943C30.2614 25.4501 30.7352 25.2894 30.767 24.9283L30.8613 23.8395C30.8956 23.4467 30.3814 23.2272 30.079 23.5056L29.9847 23.5939L25.9533 19.8667L29.9847 16.1395L30.4757 16.5934C30.8454 16.9352 31.4771 16.7191 31.5187 16.238C31.5334 16.0728 31.4685 15.9098 31.3412 15.7932L30.8503 15.3393ZM21.0564 15.3393L25.0878 19.0665L29.1192 15.3393L25.0878 11.6122L21.0564 15.3393ZM21.0564 24.3941L25.0878 28.1213L29.1192 24.3941L25.0878 20.6669L21.0564 24.3941Z" fill="#0B1719"/>
</svg>
